<?xml version="1.0" encoding="UTF-8" standalone="no"?>
<!-- Created with Inkscape (http://www.inkscape.org/) -->

<svg
   width="135.79459mm"
   height="146.02161mm"
   viewBox="0 0 135.79459 146.02161"
   version="1.1"
   id="svg5"
   inkscape:export-filename="bitmap.svg"
   inkscape:export-xdpi="124.46"
   inkscape:export-ydpi="124.46"
   xml:space="preserve"
   xmlns:inkscape="http://www.inkscape.org/namespaces/inkscape"
   xmlns:sodipodi="http://sodipodi.sourceforge.net/DTD/sodipodi-0.dtd"
   xmlns="http://www.w3.org/2000/svg"
   xmlns:svg="http://www.w3.org/2000/svg"><sodipodi:namedview
     id="namedview7"
     pagecolor="#505050"
     bordercolor="#eeeeee"
     borderopacity="1"
     inkscape:showpageshadow="0"
     inkscape:pageopacity="0"
     inkscape:pagecheckerboard="0"
     inkscape:deskcolor="#505050"
     inkscape:document-units="mm"
     showgrid="false" /><defs
     id="defs2" /><g
     inkscape:label="Layer 1"
     inkscape:groupmode="layer"
     id="layer1"
     transform="translate(-36.934846,-66.019255)"><g
       id="g4203"><text
         xml:space="preserve"
         style="font-size:25.4px;fill:#ca6504;fill-opacity:1;stroke:#000000;stroke-width:0.954;stroke-dasharray:none;stroke-opacity:1"
         x="54.467365"
         y="211.26619"
         id="text2761"><tspan
           sodipodi:role="line"
           id="tspan2759"
           style="font-style:normal;font-variant:normal;font-weight:normal;font-stretch:normal;font-size:25.4px;font-family:'Arial Black';-inkscape-font-specification:'Arial Black, ';fill:#ca6504;fill-opacity:1;stroke-width:0.954;stroke-dasharray:none"
           x="54.467365"
           y="211.26619">Portfolio</tspan></text><text
         xml:space="preserve"
         style="font-size:25.4px;fill:#2c1aa5;fill-opacity:1;stroke:#000000;stroke-width:0.754;stroke-dasharray:none;stroke-opacity:1"
         x="36.418877"
         y="210.90565"
         id="text2761-8"><tspan
           sodipodi:role="line"
           id="tspan2759-4"
           style="font-style:normal;font-variant:normal;font-weight:normal;font-stretch:normal;font-size:25.4px;font-family:'Arial Black';-inkscape-font-specification:'Arial Black, ';fill:#2c1aa5;fill-opacity:1;stroke-width:0.754;stroke-dasharray:none"
           x="36.418877"
           y="210.90565">e</tspan></text><g
         id="g3135"
         transform="matrix(0.26458333,0,0,0.26458333,38.564287,58.118796)"
         style="fill:#ca6504;fill-opacity:1">
	<path
   class="st0"
   d="m 418,127.46 c 0,9.53 -2.67,18.7 -7.58,27.29 -11.05,19.42 -33.64,35.95 -63.24,47.21 -25.99,9.82 -57.32,15.59 -91.18,15.59 -33.86,0 -65.19,-5.78 -91.18,-15.59 -29.6,-11.26 -52.2,-27.79 -63.24,-47.21 C 96.67,146.16 94,136.99 94,127.46 c 0,-49.81 72.55,-90.1 162,-90.1 89.45,0 162,40.29 162,90.1 z"
   id="path3129"
   style="fill:#ca6504;fill-opacity:1" />
	<path
   class="st1"
   d="M 418,219.98 V 256 c 0,6.79 -1.37,13.36 -3.97,19.71 -9.02,22.67 -33.43,42.09 -66.85,54.79 -25.99,9.82 -57.32,15.59 -91.18,15.59 -33.86,0 -65.19,-5.78 -91.18,-15.59 C 131.39,317.79 106.99,298.37 97.97,275.71 95.37,269.36 94,262.79 94,256 v -36.02 c 2.24,3.03 4.76,5.92 7.58,8.74 7.87,7.87 17.61,15.16 28.95,21.51 31.98,18.05 76.38,29.24 125.47,29.24 49.09,0 93.49,-11.19 125.47,-29.24 11.33,-6.35 21.08,-13.64 28.95,-21.51 2.82,-2.82 5.34,-5.71 7.58,-8.74 z"
   id="path3131"
   style="fill:#ca6504;fill-opacity:1" />
	<path
   class="st1"
   d="m 418,337.04 v 47.5 c 0,49.74 -72.55,90.1 -162,90.1 -89.45,0 -162,-40.36 -162,-90.1 v -47.5 c 3.47,4.55 7.58,8.95 12.27,13.07 31.04,27.87 86.49,46.42 149.73,46.42 63.24,0 118.68,-18.55 149.73,-46.42 4.69,-4.12 8.8,-8.52 12.27,-13.07 z"
   id="path3133"
   style="fill:#ca6504;fill-opacity:1" />
</g></g></g><style
     type="text/css"
     id="style3127">
	.st0{fill:#F9B233;stroke:#1D1D1B;stroke-width:15;stroke-miterlimit:10;}
	.st1{fill:#F9B233;stroke:#1D1D1B;stroke-width:15;stroke-linejoin:round;stroke-miterlimit:10;}
</style></svg>
