<?xml version="1.0" encoding="utf-8"?>
<!-- Generator: Adobe Illustrator 23.0.3, SVG Export Plug-In . SVG Version: 6.00 Build 0)  -->
<svg version="1.1" id="Layer_1" xmlns="http://www.w3.org/2000/svg" xmlns:xlink="http://www.w3.org/1999/xlink" x="0px" y="0px"
	 viewBox="0 0 512 512" style="enable-background:new 0 0 512 512;" xml:space="preserve">
<style type="text/css">
	.st0{fill:none;stroke:#1D1D1B;stroke-width:15;stroke-miterlimit:10;}
	.st1{fill:#1D1D1B;}
	.st2{fill:none;stroke:#1D1D1B;stroke-width:14;stroke-miterlimit:10;}
	.st3{fill:none;stroke:#1D1D1B;stroke-width:11;stroke-miterlimit:10;}
	.st4{fill-rule:evenodd;clip-rule:evenodd;fill:none;stroke:#1D1D1B;stroke-width:14.3937;stroke-miterlimit:10;}
	.st5{fill:none;stroke:#1D1D1B;stroke-width:14.3937;stroke-miterlimit:10;}
	.st6{fill-rule:evenodd;clip-rule:evenodd;fill:none;stroke:#1D1D1B;stroke-width:15;stroke-miterlimit:10;}
	.st7{fill-rule:evenodd;clip-rule:evenodd;fill:none;stroke:#1D1D1B;stroke-width:8;stroke-miterlimit:10;}
	.st8{fill:none;stroke:#1D1D1B;stroke-width:11.3072;stroke-miterlimit:10;}
	.st9{fill:none;stroke:#1D1D1B;stroke-width:25.2811;stroke-miterlimit:10;}
	.st10{fill:#1D1D1B;stroke:#1D1D1B;stroke-width:15;stroke-miterlimit:10;}
	.st11{fill:#95C11F;}
</style>
<circle class="st10" cx="256" cy="256" r="221.48"/>
<g>
	<path class="st11" d="M171.72,135.98c3.85-6.63,10.58-9.95,20.21-9.95c9.55,0,16.25,3.32,20.1,9.95
		c3.85,6.63,5.77,15.86,5.77,27.68c0,12.03-1.92,21.38-5.77,28.04c-3.85,6.67-10.55,10-20.1,10c-9.62,0-16.36-3.33-20.21-10
		c-3.85-6.67-5.77-16.01-5.77-28.04C165.94,151.84,167.87,142.62,171.72,135.98z M207.34,148.46c-0.79-4.16-2.41-7.51-4.85-10.05
		c-2.44-2.54-5.96-3.81-10.57-3.81c-4.68,0-8.23,1.27-10.67,3.81c-2.44,2.54-4.06,5.89-4.85,10.05c-0.79,4.16-1.19,9.23-1.19,15.21
		c0,6.19,0.39,11.38,1.19,15.57c0.79,4.19,2.41,7.56,4.85,10.1c2.44,2.54,6,3.81,10.67,3.81c4.6,0,8.13-1.27,10.57-3.81
		c2.44-2.54,4.05-5.91,4.85-10.1c0.79-4.19,1.19-9.38,1.19-15.57C208.52,157.69,208.13,152.62,207.34,148.46z"/>
	<path class="st11" d="M228.21,135.73v-8.56h19.38v74.54h-9.49v-65.98H228.21z"/>
	<path class="st11" d="M269.45,135.98c3.85-6.63,10.58-9.95,20.21-9.95c9.55,0,16.25,3.32,20.1,9.95
		c3.85,6.63,5.77,15.86,5.77,27.68c0,12.03-1.93,21.38-5.77,28.04c-3.85,6.67-10.55,10-20.1,10c-9.62,0-16.36-3.33-20.21-10
		c-3.85-6.67-5.77-16.01-5.77-28.04C263.68,151.84,265.6,142.62,269.45,135.98z M305.08,148.46c-0.79-4.16-2.41-7.51-4.85-10.05
		c-2.44-2.54-5.96-3.81-10.57-3.81c-4.67,0-8.23,1.27-10.67,3.81c-2.44,2.54-4.06,5.89-4.85,10.05c-0.79,4.16-1.19,9.23-1.19,15.21
		c0,6.19,0.39,11.38,1.19,15.57c0.79,4.19,2.4,7.56,4.85,10.1c2.44,2.54,6,3.81,10.67,3.81c4.6,0,8.13-1.27,10.57-3.81
		c2.44-2.54,4.06-5.91,4.85-10.1c0.79-4.19,1.19-9.38,1.19-15.57C306.26,157.69,305.87,152.62,305.08,148.46z"/>
	<path class="st11" d="M325.95,135.73v-8.56h19.38v74.54h-9.49v-65.98H325.95z"/>
	<path class="st11" d="M114.6,227.85v-8.56h19.38v74.54h-9.49v-65.98H114.6z"/>
	<path class="st11" d="M155.84,228.11c3.85-6.63,10.58-9.95,20.21-9.95c9.55,0,16.25,3.32,20.1,9.95
		c3.85,6.63,5.77,15.86,5.77,27.68c0,12.03-1.92,21.38-5.77,28.04c-3.85,6.67-10.55,10-20.1,10c-9.62,0-16.36-3.33-20.21-10
		c-3.85-6.67-5.77-16.02-5.77-28.04C150.06,243.97,151.99,234.74,155.84,228.11z M191.46,240.59c-0.79-4.16-2.41-7.51-4.85-10.05
		c-2.44-2.54-5.96-3.81-10.57-3.81c-4.68,0-8.23,1.27-10.67,3.81c-2.44,2.54-4.06,5.89-4.85,10.05c-0.79,4.16-1.19,9.23-1.19,15.21
		c0,6.19,0.39,11.38,1.19,15.57c0.79,4.19,2.41,7.56,4.85,10.1c2.44,2.54,6,3.81,10.67,3.81c4.6,0,8.13-1.27,10.57-3.81
		c2.44-2.54,4.05-5.91,4.85-10.1c0.79-4.19,1.19-9.38,1.19-15.57C192.65,249.81,192.25,244.75,191.46,240.59z"/>
	<path class="st11" d="M220.59,228.11c3.85-6.63,10.58-9.95,20.21-9.95c9.55,0,16.25,3.32,20.1,9.95
		c3.85,6.63,5.77,15.86,5.77,27.68c0,12.03-1.92,21.38-5.77,28.04c-3.85,6.67-10.55,10-20.1,10c-9.62,0-16.36-3.33-20.21-10
		c-3.85-6.67-5.77-16.02-5.77-28.04C214.81,243.97,216.74,234.74,220.59,228.11z M256.21,240.59c-0.79-4.16-2.41-7.51-4.85-10.05
		c-2.44-2.54-5.96-3.81-10.57-3.81c-4.67,0-8.23,1.27-10.67,3.81c-2.44,2.54-4.06,5.89-4.85,10.05c-0.79,4.16-1.19,9.23-1.19,15.21
		c0,6.19,0.39,11.38,1.19,15.57c0.79,4.19,2.41,7.56,4.85,10.1c2.44,2.54,6,3.81,10.67,3.81c4.6,0,8.13-1.27,10.57-3.81
		c2.44-2.54,4.06-5.91,4.85-10.1c0.79-4.19,1.18-9.38,1.18-15.57C257.39,249.81,257,244.75,256.21,240.59z"/>
	<path class="st11" d="M277.08,227.85v-8.56h19.38v74.54h-9.49v-65.98H277.08z"/>
	<path class="st11" d="M318.32,228.11c3.85-6.63,10.58-9.95,20.21-9.95c9.55,0,16.25,3.32,20.1,9.95
		c3.85,6.63,5.77,15.86,5.77,27.68c0,12.03-1.93,21.38-5.77,28.04c-3.85,6.67-10.55,10-20.1,10c-9.62,0-16.36-3.33-20.21-10
		c-3.85-6.67-5.77-16.02-5.77-28.04C312.55,243.97,314.47,234.74,318.32,228.11z M353.94,240.59c-0.79-4.16-2.41-7.51-4.85-10.05
		c-2.44-2.54-5.96-3.81-10.57-3.81c-4.67,0-8.23,1.27-10.67,3.81c-2.44,2.54-4.06,5.89-4.85,10.05c-0.79,4.16-1.19,9.23-1.19,15.21
		c0,6.19,0.39,11.38,1.19,15.57c0.79,4.19,2.4,7.56,4.85,10.1c2.44,2.54,6,3.81,10.67,3.81c4.6,0,8.13-1.27,10.57-3.81
		c2.44-2.54,4.06-5.91,4.85-10.1c0.79-4.19,1.19-9.38,1.19-15.57C355.13,249.81,354.73,244.75,353.94,240.59z"/>
	<path class="st11" d="M374.82,227.85v-8.56h19.38v74.54h-9.49v-65.98H374.82z"/>
	<path class="st11" d="M114.6,319.98v-8.56h19.38v74.54h-9.49v-65.99H114.6z"/>
	<path class="st11" d="M155.84,320.24c3.85-6.63,10.58-9.95,20.21-9.95c9.55,0,16.25,3.32,20.1,9.95
		c3.85,6.63,5.77,15.86,5.77,27.68c0,12.03-1.92,21.38-5.77,28.04c-3.85,6.67-10.55,10-20.1,10c-9.62,0-16.36-3.33-20.21-10
		c-3.85-6.67-5.77-16.02-5.77-28.04C150.06,336.1,151.99,326.87,155.84,320.24z M191.46,332.71c-0.79-4.16-2.41-7.51-4.85-10.05
		c-2.44-2.54-5.96-3.81-10.57-3.81c-4.68,0-8.23,1.27-10.67,3.81c-2.44,2.54-4.06,5.89-4.85,10.05c-0.79,4.16-1.19,9.23-1.19,15.21
		c0,6.19,0.39,11.38,1.19,15.57c0.79,4.19,2.41,7.56,4.85,10.1c2.44,2.54,6,3.81,10.67,3.81c4.6,0,8.13-1.27,10.57-3.81
		c2.44-2.54,4.05-5.91,4.85-10.1c0.79-4.19,1.19-9.38,1.19-15.57C192.65,341.94,192.25,336.87,191.46,332.71z"/>
	<path class="st11" d="M212.34,319.98v-8.56h19.38v74.54h-9.49v-65.99H212.34z"/>
	<path class="st11" d="M245.33,319.98v-8.56h19.38v74.54h-9.49v-65.99H245.33z"/>
	<path class="st11" d="M286.57,320.24c3.85-6.63,10.58-9.95,20.21-9.95c9.55,0,16.25,3.32,20.1,9.95
		c3.85,6.63,5.77,15.86,5.77,27.68c0,12.03-1.93,21.38-5.77,28.04c-3.85,6.67-10.55,10-20.1,10c-9.62,0-16.36-3.33-20.21-10
		c-3.85-6.67-5.77-16.02-5.77-28.04C280.8,336.1,282.72,326.87,286.57,320.24z M322.19,332.71c-0.79-4.16-2.41-7.51-4.85-10.05
		c-2.44-2.54-5.96-3.81-10.57-3.81c-4.67,0-8.23,1.27-10.67,3.81c-2.44,2.54-4.06,5.89-4.85,10.05c-0.79,4.16-1.19,9.23-1.19,15.21
		c0,6.19,0.39,11.38,1.19,15.57c0.79,4.19,2.4,7.56,4.85,10.1c2.44,2.54,6,3.81,10.67,3.81c4.6,0,8.13-1.27,10.57-3.81
		c2.44-2.54,4.06-5.91,4.85-10.1c0.79-4.19,1.19-9.38,1.19-15.57C323.38,341.94,322.98,336.87,322.19,332.71z"/>
	<path class="st11" d="M351.31,320.24c3.85-6.63,10.58-9.95,20.21-9.95c9.55,0,16.25,3.32,20.1,9.95
		c3.85,6.63,5.77,15.86,5.77,27.68c0,12.03-1.93,21.38-5.77,28.04c-3.85,6.67-10.55,10-20.1,10c-9.62,0-16.36-3.33-20.21-10
		c-3.85-6.67-5.77-16.02-5.77-28.04C345.54,336.1,347.47,326.87,351.31,320.24z M386.94,332.71c-0.79-4.16-2.41-7.51-4.85-10.05
		c-2.44-2.54-5.96-3.81-10.57-3.81c-4.67,0-8.23,1.27-10.67,3.81c-2.44,2.54-4.06,5.89-4.85,10.05c-0.79,4.16-1.19,9.23-1.19,15.21
		c0,6.19,0.39,11.38,1.19,15.57c0.79,4.19,2.4,7.56,4.85,10.1c2.44,2.54,6,3.81,10.67,3.81c4.6,0,8.13-1.27,10.57-3.81
		c2.44-2.54,4.06-5.91,4.85-10.1c0.79-4.19,1.19-9.38,1.19-15.57C388.12,341.94,387.73,336.87,386.94,332.71z"/>
</g>
</svg>
