<?xml version="1.0" encoding="utf-8"?>
<!-- Generator: Adobe Illustrator 23.0.3, SVG Export Plug-In . SVG Version: 6.00 Build 0)  -->
<svg version="1.1" id="Layer_1" xmlns="http://www.w3.org/2000/svg" xmlns:xlink="http://www.w3.org/1999/xlink" x="0px" y="0px"
	 viewBox="0 0 512 512" style="enable-background:new 0 0 512 512;" xml:space="preserve">
<style type="text/css">
	.st0{fill:#3B75DB;stroke:#1D1D1B;stroke-width:15;stroke-miterlimit:10;}
	.st1{fill:none;stroke:#1D1D1B;stroke-width:15;stroke-miterlimit:10;}
	.st2{fill:#1D1D1B;}
	.st3{fill:none;stroke:#1D1D1B;stroke-width:14;stroke-miterlimit:10;}
	.st4{fill:none;stroke:#1D1D1B;stroke-width:11;stroke-miterlimit:10;}
	.st5{fill-rule:evenodd;clip-rule:evenodd;fill:none;stroke:#1D1D1B;stroke-width:14.3937;stroke-miterlimit:10;}
	.st6{fill:none;stroke:#1D1D1B;stroke-width:14.3937;stroke-miterlimit:10;}
	.st7{fill-rule:evenodd;clip-rule:evenodd;fill:none;stroke:#1D1D1B;stroke-width:15;stroke-miterlimit:10;}
	.st8{fill-rule:evenodd;clip-rule:evenodd;fill:none;stroke:#1D1D1B;stroke-width:8;stroke-miterlimit:10;}
	.st9{fill:none;stroke:#1D1D1B;stroke-width:20.5027;stroke-miterlimit:10;}
	.st10{fill:#FFFFFF;stroke:#1D1D1B;stroke-width:15;stroke-miterlimit:10;}
	.st11{fill:#2962A5;stroke:#1D1D1B;stroke-width:15;stroke-miterlimit:10;}
	.st12{fill:none;stroke:#FFFFFF;stroke-width:11.3072;stroke-miterlimit:10;}
</style>
<path class="st0" d="M63.32,154.48v203.04c0,6.02,3.21,11.58,8.42,14.59l175.84,101.52c5.21,3.01,11.63,3.01,16.84,0l175.84-101.52
	c5.21-3.01,8.42-8.57,8.42-14.59V154.48c0-6.02-3.21-11.58-8.42-14.59L264.42,38.37c-5.21-3.01-11.63-3.01-16.84,0L71.74,139.89
	C66.53,142.9,63.32,148.46,63.32,154.48z"/>
<path class="st10" d="M319.86,295.76l45.53,24.28c-21.93,37.61-62.71,62.79-109.37,62.79c-70.03,0-126.79-56.76-126.79-126.87
	c0-70.03,56.76-126.79,126.79-126.79c47.79,0,89.4,26.38,110.96,65.43l-46.14,23.3c-13.04-22.24-37.16-37.17-64.82-37.17
	c-41.61,0-75.23,33.7-75.23,75.23c0,41.61,33.62,75.31,75.23,75.31C282.93,331.27,306.6,317.1,319.86,295.76z"/>
<path class="st1" d="M245.54,256.11l74.32,39.65c-13.26,21.34-36.93,35.51-63.84,35.51c-41.61,0-75.23-33.7-75.23-75.31
	c0-41.53,33.62-75.23,75.23-75.23c27.66,0,51.78,14.93,64.82,37.17l-73.19,37.01L245.54,256.11z"/>
<polygon class="st11" points="444.47,166.41 444.47,355.54 442.06,360.97 365.39,320.04 319.86,295.76 245.54,256.11 247.65,254.91 
	320.84,217.9 366.98,194.6 443.34,156.01 "/>
<path class="st1" d="M245.54,256.11l74.32,39.65c-13.26,21.34-36.93,35.51-63.84,35.51c-41.61,0-75.23-33.7-75.23-75.31
	c0-41.53,33.62-75.23,75.23-75.23c27.66,0,51.78,14.93,64.82,37.17l-73.19,37.01L245.54,256.11z"/>
<g>
	<g>
		<line class="st12" x1="346.2" y1="236.34" x2="346.2" y2="275.66"/>
		<line class="st12" x1="365.86" y1="256" x2="326.53" y2="256"/>
	</g>
	<g>
		<line class="st12" x1="407.92" y1="236.34" x2="407.92" y2="275.66"/>
		<line class="st12" x1="427.58" y1="256" x2="388.25" y2="256"/>
	</g>
</g>
</svg>
